<svg width="22" height="22" viewBox="0 -10 22 22" fill="none" xmlns="http://www.w3.org/2000/svg">
  <path d="M21.9463 1.44836C21.4313 2.75131 20.6874 3.95161 19.7497 4.99252L20.808 6.05085C20.9102 6.153 20.9912 6.27426 21.0465 6.40772C21.1018 6.54119 21.1302 6.68423 21.1302 6.82869C21.1302 6.97314 21.1018 7.11618 21.0465 7.24964C20.9912 7.3831 20.9102 7.50437 20.808 7.60652C20.7059 7.70866 20.5846 7.78969 20.4511 7.84497C20.3177 7.90025 20.1746 7.9287 20.0302 7.9287C19.8857 7.92869 19.7427 7.90024 19.6092 7.84496C19.4758 7.78968 19.3545 7.70865 19.2523 7.6065L18.1432 6.4973C16.3914 7.81881 14.2912 8.59889 12.1015 8.74142V9.9013C12.1015 10.1931 11.9856 10.4729 11.7793 10.6792C11.573 10.8855 11.2931 11.0014 11.0014 11.0014C10.7096 11.0014 10.4298 10.8855 10.2235 10.6792C10.0172 10.4729 9.90125 10.1931 9.90125 9.9013V8.74142C7.71154 8.59889 5.61138 7.81881 3.8596 6.4973L2.7504 7.6065C2.54411 7.81279 2.26432 7.92868 1.97258 7.92868C1.68084 7.92868 1.40105 7.81279 1.19475 7.6065C0.988462 7.40021 0.872569 7.12041 0.872569 6.82867C0.872569 6.53693 0.988462 6.25714 1.19475 6.05085L2.25308 4.99252C1.31535 3.9516 0.57144 2.75129 0.056516 1.44833C0.0108039 1.31127 -0.00746395 1.16654 0.00275572 1.02242C0.0129754 0.878297 0.0514823 0.737597 0.116078 0.608355C0.180674 0.479113 0.270093 0.363859 0.37923 0.269175C0.488368 0.17449 0.615086 0.102229 0.75215 0.0565171C1.02896 -0.0358026 1.33111 -0.0143785 1.59213 0.116078C1.72137 0.180674 1.83663 0.270094 1.93131 0.379231C2.02599 0.488368 2.09826 0.615087 2.14397 0.752151C2.83302 2.52418 4.05521 4.03858 5.6418 5.08625C7.2284 6.13391 9.10111 6.66316 11.0014 6.60091C12.9023 6.663 14.7756 6.13328 16.3625 5.08492C17.9495 4.03656 19.1717 2.52129 19.8604 0.748421C19.9554 0.474533 20.1546 0.249189 20.4148 0.121364C20.6749 -0.00646112 20.975 -0.0264347 21.2499 0.0657844C21.5247 0.158003 21.752 0.354961 21.8824 0.613851C22.0128 0.87274 22.0358 1.17264 21.9463 1.44836Z" fill="#2D2D2D"/>
</svg>
