<svg width="22" height="18" viewBox="0 0 22 18" fill="none" xmlns="http://www.w3.org/2000/svg">
  <path d="M21.9436 9.55196C21.4287 8.24916 20.6849 7.049 19.7473 6.00821L20.8055 4.95001C20.9076 4.84787 20.9886 4.72662 21.0439 4.59317C21.0992 4.45973 21.1276 4.3167 21.1276 4.17226C21.1276 4.02782 21.0992 3.8848 21.0439 3.75135C20.9886 3.61791 20.9076 3.49666 20.8055 3.39452C20.7033 3.29239 20.5821 3.21137 20.4486 3.1561C20.3152 3.10083 20.1722 3.07238 20.0277 3.07238C19.8833 3.07238 19.7403 3.10083 19.6068 3.15611C19.4734 3.21138 19.3521 3.2924 19.25 3.39454L18.1409 4.50361C16.3893 3.18226 14.2894 2.40227 12.1 2.25976V1.1C12.1 0.808263 11.9841 0.528473 11.7778 0.322183C11.5715 0.115893 11.2917 0 11 0C10.7082 0 10.4285 0.115893 10.2222 0.322183C10.0159 0.528473 9.89998 0.808263 9.89998 1.1V2.25976C7.71053 2.40227 5.61062 3.18226 3.85904 4.50361L2.74997 3.39454C2.5437 3.18827 2.26394 3.07239 1.97224 3.07239C1.68053 3.07239 1.40077 3.18827 1.1945 3.39454C0.988234 3.60081 0.872354 3.88057 0.872354 4.17227C0.872354 4.46398 0.988234 4.74374 1.1945 4.95001L2.2527 6.00821C1.31508 7.04901 0.571261 8.24918 0.0563964 9.55199C-0.0187988 9.77793 -0.0187988 10.0221 0.0563964 10.2481C0.911554 12.4444 2.41865 14.3262 4.37507 15.6405C6.33148 16.9548 8.6434 17.6387 11 17.6C13.3566 17.6387 15.6685 16.9548 17.6249 15.6405C19.5813 14.3262 21.0884 12.4444 21.9436 10.2481C22.0188 10.0221 22.0188 9.77791 21.9436 9.55196V9.55196ZM11 15.4C9.16328 15.4612 7.3505 14.9697 5.79625 13.9891C4.242 13.0085 3.01782 11.5841 2.28215 9.90002C3.01782 8.21597 4.242 6.79149 5.79625 5.81093C7.3505 4.83036 9.16328 4.33885 11 4.40001C12.8367 4.33893 14.6494 4.83041 16.2037 5.81085C17.758 6.79129 18.9824 8.21559 19.7184 9.89948C18.9826 11.5836 17.7583 13.0082 16.204 13.9888C14.6497 14.9695 12.8368 15.4611 11 15.4V15.4ZM11 6.60001C10.3473 6.60001 9.70928 6.79355 9.1666 7.15616C8.62392 7.51877 8.20095 8.03416 7.95118 8.63716C7.70141 9.24016 7.63606 9.90368 7.76339 10.5438C7.89072 11.184 8.20501 11.772 8.66653 12.2335C9.12804 12.695 9.71605 13.0093 10.3562 13.1366C10.9963 13.2639 11.6598 13.1986 12.2628 12.9488C12.8658 12.6991 13.3812 12.2761 13.7438 11.7334C14.1064 11.1907 14.3 10.5527 14.3 9.90002C14.299 9.02509 13.951 8.18628 13.3324 7.56761C12.7137 6.94895 11.8749 6.60097 11 6.60001ZM11 11C10.7824 11 10.5697 10.9355 10.3889 10.8146C10.208 10.6938 10.067 10.522 9.98371 10.321C9.90046 10.12 9.87867 9.8988 9.92112 9.68542C9.96356 9.47204 10.0683 9.27603 10.2222 9.1222C10.376 8.96836 10.572 8.86359 10.7854 8.82115C10.9988 8.77871 11.2199 8.80049 11.4209 8.88375C11.6219 8.967 11.7937 9.10799 11.9146 9.28889C12.0355 9.46978 12.1 9.68246 12.1 9.90002C12.0996 10.1916 11.9836 10.4712 11.7774 10.6774C11.5712 10.8836 11.2916 10.9996 11 11Z" fill="#2D2D2D"/>
</svg>
