<svg width="22" height="22" viewBox="0 0 22 22" fill="none" xmlns="http://www.w3.org/2000/svg">
    <path d="M10.0736 15.7335C10.0736 15.7404 10.0736 15.7496 10.0713 15.7565C10.0851 15.6554 10.0989 15.5521 10.1127 15.4511C10.1081 15.4764 10.1035 15.4947 10.0943 15.5177C10.1333 15.4258 10.1724 15.334 10.2091 15.2445C10.2022 15.2582 10.1953 15.272 10.1861 15.2835C10.2458 15.2054 10.3055 15.1297 10.3652 15.0516C10.3491 15.07 10.3354 15.0838 10.317 15.0998C10.3951 15.0401 10.4708 14.9804 10.5489 14.9207C10.5374 14.9299 10.5236 14.9368 10.5099 14.9437C10.6017 14.9047 10.6936 14.8656 10.7831 14.8289C10.7601 14.8381 10.7395 14.8427 10.7165 14.8473C10.8175 14.8335 10.9209 14.8197 11.0219 14.806C11.0058 14.8082 10.9897 14.8082 10.9737 14.806C11.0747 14.8197 11.178 14.8335 11.279 14.8473C11.2538 14.8427 11.2354 14.8381 11.2125 14.8289C11.3043 14.8679 11.3961 14.907 11.4857 14.9437C11.4719 14.9368 11.4581 14.9299 11.4466 14.9207C11.5247 14.9804 11.6005 15.0401 11.6785 15.0998C11.6602 15.0838 11.6464 15.07 11.6303 15.0516C11.69 15.1297 11.7497 15.2054 11.8094 15.2835C11.8002 15.272 11.7933 15.2582 11.7865 15.2445C11.8255 15.3363 11.8645 15.4281 11.9013 15.5177C11.8921 15.4947 11.8875 15.4741 11.8829 15.4511C11.8967 15.5521 11.9104 15.6554 11.9242 15.7565C11.9219 15.7404 11.9219 15.7243 11.9242 15.7082C11.9104 15.8093 11.8967 15.9126 11.8829 16.0136C11.8875 15.9883 11.8921 15.97 11.9013 15.947C11.8622 16.0388 11.8232 16.1307 11.7865 16.2202C11.7933 16.2064 11.8002 16.1927 11.8094 16.1812C11.7497 16.2593 11.69 16.335 11.6303 16.4131C11.6464 16.3947 11.6602 16.3809 11.6785 16.3649C11.6005 16.4246 11.5247 16.4842 11.4466 16.5439C11.4581 16.5348 11.4719 16.5279 11.4857 16.521C11.3938 16.56 11.302 16.599 11.2125 16.6358C11.2354 16.6266 11.2561 16.622 11.279 16.6174C11.178 16.6312 11.0747 16.645 10.9737 16.6587C10.9897 16.6564 11.0058 16.6564 11.0219 16.6587C10.9209 16.645 10.8175 16.6312 10.7165 16.6174C10.7418 16.622 10.7601 16.6266 10.7831 16.6358C10.6913 16.5967 10.5994 16.5577 10.5099 16.521C10.5236 16.5279 10.5374 16.5348 10.5489 16.5439C10.4708 16.4842 10.3951 16.4246 10.317 16.3649C10.3354 16.3809 10.3491 16.3947 10.3652 16.4131C10.3055 16.335 10.2458 16.2593 10.1861 16.1812C10.1953 16.1927 10.2022 16.2064 10.2091 16.2202C10.1701 16.1284 10.131 16.0365 10.0943 15.947C10.1035 15.97 10.1081 15.9906 10.1127 16.0136C10.0989 15.9126 10.0851 15.8093 10.0713 15.7082C10.0736 15.7174 10.0736 15.7243 10.0736 15.7335C10.0897 16.0365 10.1907 16.3258 10.4088 16.5462C10.6086 16.746 10.9346 16.8952 11.2216 16.8814C11.5178 16.8677 11.8255 16.7712 12.0344 16.5462C12.2342 16.3281 12.388 16.0388 12.3696 15.7335C12.349 15.3684 12.2319 15.0287 11.9678 14.7646C11.8048 14.6016 11.6143 14.496 11.3961 14.4248C11.2699 14.3835 11.1321 14.3651 10.9989 14.3651C10.8658 14.3651 10.728 14.3835 10.6017 14.4248C10.3836 14.4983 10.193 14.6016 10.03 14.7646C9.77056 15.0241 9.64198 15.3707 9.6282 15.7335C9.61672 16.0779 9.77744 16.4521 10.0208 16.6932C10.1632 16.8309 10.2895 16.9113 10.464 16.9848C10.5236 17.01 10.5833 17.0399 10.6453 17.0582C10.7349 17.0835 10.8933 17.1018 10.9851 17.1041C11.0931 17.1041 11.2216 17.0835 11.3273 17.0628C11.3525 17.0582 11.3709 17.0536 11.3938 17.0444C11.6074 16.971 11.7956 16.8745 11.9564 16.7115C12.225 16.4383 12.3444 16.1123 12.365 15.7358C12.3811 15.4511 12.225 15.1205 12.0298 14.923C11.8301 14.7233 11.504 14.5741 11.217 14.5878C10.9209 14.6016 10.6132 14.698 10.4043 14.923C10.1976 15.1526 10.092 15.4167 10.0736 15.7335Z" fill="#D81159"/>
    <path d="M12.1492 11.7295C12.1492 11.0912 12.1492 10.4506 12.1492 9.81239C12.1492 8.79301 12.1492 7.77134 12.1492 6.75196C12.1492 6.51549 12.1492 6.28131 12.1492 6.04483C12.1492 5.75095 12.0206 5.44101 11.814 5.23208C11.6143 5.03234 11.2882 4.88311 11.0012 4.89688C10.705 4.91066 10.3974 5.00708 10.1884 5.23208C9.98179 5.45708 9.85321 5.73259 9.85321 6.04483C9.85321 6.68309 9.85321 7.32364 9.85321 7.9619C9.85321 8.98127 9.85321 10.0029 9.85321 11.0223C9.85321 11.2588 9.85321 11.493 9.85321 11.7295C9.85321 12.0233 9.98179 12.3333 10.1884 12.5422C10.3882 12.7419 10.7142 12.8912 11.0012 12.8774C11.2974 12.8636 11.6051 12.7672 11.814 12.5422C12.0184 12.3149 12.1492 12.0394 12.1492 11.7295Z" fill="#D81159"/>
    <path d="M21.6639 6.10682C21.471 5.91396 21.2759 5.71881 21.083 5.52596C20.6215 5.06448 20.16 4.60301 19.6962 4.13924C19.136 3.57904 18.5758 3.01884 18.0178 2.46094C17.5403 1.9834 17.0604 1.50355 16.5828 1.02601C16.3555 0.798715 16.1351 0.564534 15.9009 0.344129C15.6736 0.128315 15.382 0.00892847 15.0698 0.00204079C15.033 0.00204079 14.994 0.00204079 14.9572 0.00204079C14.785 0.00204079 14.6128 0.00204079 14.4406 0.00204079C13.8207 0.00204079 13.2008 0.00204079 12.5809 0.00204079C11.7933 0.00204079 11.0035 0.00204079 10.216 0.00204079C9.5111 0.00204079 8.80852 0.00204079 8.10365 0.00204079C7.72481 0.00204079 7.34597 -0.00255099 6.96483 0.00204079C6.62502 0.00433668 6.30587 0.139794 6.06709 0.378567C5.96606 0.479586 5.86733 0.57831 5.76631 0.679329C5.35532 1.09029 4.94434 1.50126 4.53105 1.91452C3.97771 2.46783 3.42667 3.01884 2.87333 3.57215C2.35903 4.08643 1.84472 4.60071 1.33041 5.11499C1.02504 5.42035 0.717376 5.728 0.412007 6.03335C0.389047 6.05631 0.366086 6.07927 0.343126 6.10223C0.127301 6.32952 0.00561248 6.6188 0.00102045 6.93563C-0.00127556 7.04584 0.00102045 7.15374 0.00102045 7.26395C0.00102045 7.80348 0.00102045 8.34531 0.00102045 8.88485C0.00102045 9.65397 0.00102045 10.4254 0.00102045 11.1945C0.00102045 11.9407 0.00102045 12.6891 0.00102045 13.4353C0.00102045 13.9197 0.00102045 14.4019 0.00102045 14.8863C0.00102045 14.9368 0.00102045 14.985 0.00102045 15.0355C0.00331646 15.3547 0.118117 15.6577 0.336238 15.8919C0.386751 15.947 0.441855 15.9975 0.494663 16.0503C0.845953 16.4016 1.19495 16.7506 1.54624 17.1018C2.08121 17.6368 2.61388 18.1694 3.14885 18.7044C3.68842 19.2439 4.22798 19.7834 4.76754 20.323C5.14179 20.6972 5.51834 21.0737 5.89259 21.448C5.96147 21.5168 6.03035 21.5903 6.10153 21.6569C6.32883 21.8727 6.62042 21.9921 6.93498 21.999C6.97401 21.999 7.01075 21.999 7.04978 21.999C7.49521 21.999 7.94293 21.999 8.38835 21.999C9.12537 21.999 9.86239 21.999 10.5994 21.999C11.3732 21.999 12.1492 21.999 12.923 21.999C13.497 21.999 14.0687 21.999 14.6427 21.999C14.7736 21.999 14.9067 22.0013 15.0376 21.999C15.3751 21.9967 15.6943 21.8589 15.9331 21.6225C16.2109 21.3447 16.491 21.0646 16.7688 20.7867C17.2739 20.2817 17.779 19.7766 18.2842 19.2715C18.8375 18.7182 19.3908 18.1648 19.9442 17.6115C20.3758 17.1799 20.8098 16.746 21.2414 16.3144C21.3562 16.1996 21.471 16.0848 21.5858 15.97C21.6088 15.947 21.6318 15.9263 21.6524 15.9034C21.8682 15.6761 21.9876 15.3845 21.9945 15.07C22.0037 14.7325 21.9945 14.395 21.9945 14.0575C21.9945 13.3687 21.9945 12.68 21.9945 11.9935C21.9945 11.206 21.9945 10.4185 21.9945 9.63101C21.9945 8.98357 21.9945 8.33613 21.9945 7.69098C21.9945 7.43614 21.9945 7.1813 21.9945 6.92645C21.9991 6.62569 21.8728 6.31574 21.6639 6.10682C21.4641 5.90707 21.1381 5.75784 20.8511 5.77162C20.5549 5.78539 20.2473 5.88182 20.0383 6.10682C19.8317 6.33181 19.7031 6.60732 19.7031 6.91956C19.7031 7.18818 19.7031 7.4591 19.7031 7.72772C19.7031 8.37975 19.7031 9.02949 19.7031 9.68152C19.7031 10.4667 19.7031 11.2496 19.7031 12.0348C19.7031 12.7167 19.7031 13.3963 19.7031 14.0782C19.7031 14.4088 19.6962 14.7371 19.7031 15.0677C19.7031 15.0723 19.7031 15.0769 19.7031 15.0815C19.8156 14.8105 19.9281 14.5396 20.0383 14.2687C19.8478 14.4593 19.6572 14.6498 19.4666 14.8404C19.0074 15.2996 18.5459 15.761 18.0867 16.2202C17.5334 16.7735 16.9777 17.3291 16.4244 17.8824C15.9422 18.3646 15.4601 18.8467 14.9802 19.3266C14.7483 19.5584 14.5095 19.788 14.2799 20.0268C14.2776 20.0291 14.273 20.0337 14.2707 20.036C14.5417 19.9235 14.8126 19.811 15.0835 19.7008C14.8149 19.7008 14.544 19.7008 14.2753 19.7008C13.6233 19.7008 12.9735 19.7008 12.3214 19.7008C11.5362 19.7008 10.7532 19.7008 9.96801 19.7008C9.2861 19.7008 8.60648 19.7008 7.92456 19.7008C7.59393 19.7008 7.2656 19.6939 6.93498 19.7008C6.93039 19.7008 6.92579 19.7008 6.9212 19.7008C7.19213 19.8133 7.46306 19.9258 7.73399 20.036C7.54342 19.8454 7.35285 19.6549 7.16228 19.4643C6.70308 19.0051 6.24158 18.5437 5.78238 18.0845C5.22904 17.5312 4.67341 16.9756 4.12007 16.4223C3.6379 15.9401 3.15574 15.458 2.67587 14.9781C2.44398 14.7463 2.21438 14.5075 1.97559 14.2779C1.9733 14.2756 1.9687 14.271 1.96641 14.2687C2.07891 14.5396 2.19142 14.8105 2.30163 15.0815C2.30163 14.8128 2.30163 14.5419 2.30163 14.2733C2.30163 13.6213 2.30163 12.9715 2.30163 12.3195C2.30163 11.5343 2.30163 10.7514 2.30163 9.96621C2.30163 9.28433 2.30163 8.60475 2.30163 7.92287C2.30163 7.59226 2.30851 7.26395 2.30163 6.93334C2.30163 6.92875 2.30163 6.92415 2.30163 6.91956C2.18912 7.19048 2.07662 7.46139 1.96641 7.73231C2.15698 7.54175 2.34755 7.35119 2.53811 7.16063C2.99732 6.70145 3.45882 6.23998 3.91802 5.7808C4.47136 5.22749 5.02699 4.67188 5.58033 4.11857C6.06249 3.63644 6.54466 3.1543 7.02452 2.67446C7.25642 2.44257 7.49521 2.21298 7.72481 1.97421C7.7271 1.97192 7.7317 1.96732 7.73399 1.96503C7.46306 2.07753 7.19213 2.19003 6.9212 2.30023C7.18984 2.30023 7.46077 2.30023 7.7294 2.30023C8.38147 2.30023 9.03124 2.30023 9.68331 2.30023C10.4685 2.30023 11.2515 2.30023 12.0367 2.30023C12.7186 2.30023 13.3983 2.30023 14.0802 2.30023C14.4108 2.30023 14.7391 2.30712 15.0698 2.30023C15.0743 2.30023 15.0789 2.30023 15.0835 2.30023C14.8126 2.18773 14.5417 2.07523 14.2707 1.96503C14.4613 2.15559 14.6519 2.34615 14.8424 2.53671C15.3016 2.99588 15.7631 3.45736 16.2224 3.91654C16.7757 4.46985 17.3313 5.02545 17.8847 5.57876C18.3668 6.0609 18.849 6.54304 19.3289 7.02288C19.563 7.25706 19.7927 7.49354 20.0291 7.72313C20.0314 7.72542 20.036 7.73001 20.0383 7.73231C20.2473 7.94124 20.5549 8.06751 20.8511 8.06751C21.1335 8.06751 21.4687 7.94353 21.6639 7.73231C21.8637 7.5142 22.0129 7.22721 21.9991 6.91956C21.9853 6.61421 21.8843 6.32722 21.6639 6.10682Z" fill="#D81159"/>
</svg>
